# Blender v2.77 (sub 0) OBJ File: ''
# www.blender.org
mtllib Cube.mtl
o Cube_Cube.002
v 1.000000 -1.000000 -1.000000
v 2.220442 1.000000 -2.220442
v 1.000000 -1.000000 1.000000
v 2.220442 1.000000 2.220442
v -1.000000 -1.000000 -1.000000
v -2.220442 1.000000 -2.220442
v -1.000000 -1.000000 1.000000
v -2.220442 1.000000 2.220442
v 2.220442 1.000000 -2.220442
v 2.220442 1.000000 2.220442
v -2.220442 1.000000 2.220442
v -2.220442 1.000000 -2.220442
v 1.000000 -1.000000 -1.000000
v 1.000000 -1.000000 -1.000000
v 2.220442 1.000000 -2.220442
v 2.220442 1.000000 2.220442
v 1.000000 -1.000000 1.000000
v 1.000000 -1.000000 1.000000
v -2.220442 1.000000 2.220442
v -1.000000 -1.000000 1.000000
v -1.000000 -1.000000 1.000000
v -2.220442 1.000000 -2.220442
v -1.000000 -1.000000 -1.000000
v -1.000000 -1.000000 -1.000000
v 2.220442 1.000000 0.000000
v 0.000000 1.000000 -2.220442
v 0.000000 1.000000 2.220442
v -2.220442 1.000000 0.000000
v 0.000000 2.149968 0.000000
v 2.220442 1.000000 1.110221
v 1.110221 1.000000 -2.220442
v -1.110221 1.000000 2.220442
v -2.220442 1.000000 -1.110221
v 2.220442 1.000000 -1.110221
v -1.110221 1.000000 -2.220442
v 1.110221 1.000000 2.220442
v -2.220442 1.000000 1.110221
v 1.110221 2.149968 0.000000
v -1.110221 2.149968 0.000000
v 0.000000 2.149968 -1.110221
v 0.000000 2.149968 1.110221
v -1.110221 2.149968 1.110221
v -1.110221 2.149968 -1.110221
v 1.110221 2.149968 -1.110221
v 1.110221 2.149968 1.110221
v 2.220442 1.000000 1.665331
v 1.665331 1.000000 -2.220442
v -1.665331 1.000000 2.220442
v -2.220442 1.000000 -1.665331
v 2.220442 1.000000 -0.555110
v -0.555110 1.000000 -2.220442
v 0.555110 1.000000 2.220442
v -2.220442 1.000000 0.555110
v 1.665331 1.000000 0.000000
v -0.555110 2.149968 0.000000
v 0.000000 1.000000 -1.665331
v 0.000000 2.149968 0.555110
v 2.220442 1.000000 0.555110
v 0.555110 1.000000 -2.220442
v -0.555110 1.000000 2.220442
v -2.220442 1.000000 -0.555110
v 2.220442 1.000000 -1.665331
v -1.665331 1.000000 -2.220442
v 1.665331 1.000000 2.220442
v -2.220442 1.000000 1.665331
v 0.555110 2.149968 0.000000
v -1.665331 1.000000 0.000000
v 0.000000 2.149968 -0.555110
v 0.000000 1.000000 1.665331
v -0.555110 2.149968 1.110221
v -1.665331 1.000000 1.110221
v -1.110221 2.149968 0.555110
v -1.110221 1.000000 1.665331
v -0.555110 2.149968 -1.110221
v -1.665331 1.000000 -1.110221
v -1.110221 1.000000 -1.665331
v -1.110221 2.149968 -0.555110
v 1.665331 1.000000 -1.110221
v 0.555110 2.149968 -1.110221
v 1.110221 1.000000 -1.665331
v 1.110221 2.149968 -0.555110
v 1.665331 1.000000 1.110221
v 0.555110 2.149968 1.110221
v 1.110221 2.149968 0.555110
v 1.110221 1.000000 1.665331
v 0.555110 1.000000 1.665331
v 0.555110 2.149968 0.555110
v 1.665331 1.000000 0.555110
v 0.555110 2.149968 -0.555110
v 0.555110 1.000000 -1.665331
v 1.665331 1.000000 -1.665331
v -1.665331 1.000000 -0.555110
v -1.665331 1.000000 -1.665331
v -0.555110 1.000000 -1.665331
v -1.665331 1.000000 1.665331
v -1.665331 1.000000 0.555110
v -0.555110 2.149968 0.555110
v -0.555110 1.000000 1.665331
v -0.555110 2.149968 -0.555110
v 1.665331 1.000000 -0.555110
v 1.665331 1.000000 1.665331
v 0.000000 1.434719 2.565897
v 0.000000 2.584687 2.010787
v 0.555110 2.584687 2.010787
v 0.555110 1.434719 2.565897
v 2.220442 1.000000 1.665331
v 1.665331 1.000000 -2.220442
v -1.665331 1.000000 2.220442
v -2.220442 1.000000 -1.665331
v 2.220442 1.000000 -0.555110
v 2.220442 1.000000 0.000000
v -0.555110 1.000000 -2.220442
v 0.000000 1.000000 -2.220442
v 0.555110 1.000000 2.220442
v 0.000000 1.000000 2.220442
v -2.220442 1.000000 0.555110
v -2.220442 1.000000 0.000000
v 1.665331 1.000000 0.000000
v 1.665331 1.000000 0.000000
v 1.665331 1.000000 0.000000
v -0.555110 2.149968 0.000000
v -0.555110 2.149968 0.000000
v -0.555110 2.149968 0.000000
v 0.000000 2.149968 0.000000
v 0.000000 2.149968 0.000000
v 0.000000 2.149968 0.000000
v 0.000000 1.000000 -1.665331
v 0.000000 1.000000 -1.665331
v 0.000000 1.000000 -1.665331
v 0.000000 2.149968 0.555110
v 0.000000 2.149968 0.555110
v 0.000000 2.149968 0.555110
v 2.220442 1.000000 0.555110
v 2.220442 1.000000 1.110221
v 0.555110 1.000000 -2.220442
v 1.110221 1.000000 -2.220442
v -0.555110 1.000000 2.220442
v -1.110221 1.000000 2.220442
v -2.220442 1.000000 -0.555110
v -2.220442 1.000000 -1.110221
v 2.220442 1.000000 -1.665331
v 2.220442 1.000000 -1.110221
v -1.665331 1.000000 -2.220442
v -1.110221 1.000000 -2.220442
v 1.665331 1.000000 2.220442
v 1.110221 1.000000 2.220442
v -2.220442 1.000000 1.665331
v -2.220442 1.000000 1.110221
v 0.555110 2.149968 0.000000
v 0.555110 2.149968 0.000000
v 0.555110 2.149968 0.000000
v 1.110221 2.149968 0.000000
v 1.110221 2.149968 0.000000
v 1.110221 2.149968 0.000000
v -1.665331 1.000000 0.000000
v -1.665331 1.000000 0.000000
v -1.665331 1.000000 0.000000
v -1.110221 2.149968 0.000000
v -1.110221 2.149968 0.000000
v -1.110221 2.149968 0.000000
v 0.000000 2.149968 -0.555110
v 0.000000 2.149968 -0.555110
v 0.000000 2.149968 -0.555110
v 0.000000 2.149968 -1.110221
v 0.000000 2.149968 -1.110221
v 0.000000 2.149968 -1.110221
v 0.000000 1.000000 1.665331
v 0.000000 1.000000 1.665331
v 0.000000 1.000000 1.665331
v 0.000000 1.000000 1.665331
v 0.000000 2.149968 1.110221
v 0.000000 2.149968 1.110221
v 0.000000 2.149968 1.110221
v 0.000000 2.149968 1.110221
v -0.555110 2.149968 1.110221
v -0.555110 2.149968 1.110221
v -0.555110 2.149968 1.110221
v -1.665331 1.000000 1.110221
v -1.665331 1.000000 1.110221
v -1.665331 1.000000 1.110221
v -1.110221 2.149968 1.110221
v -1.110221 2.149968 1.110221
v -1.110221 2.149968 1.110221
v -1.110221 2.149968 0.555110
v -1.110221 2.149968 0.555110
v -1.110221 2.149968 0.555110
v -1.110221 1.000000 1.665331
v -1.110221 1.000000 1.665331
v -1.110221 1.000000 1.665331
v -0.555110 2.149968 -1.110221
v -0.555110 2.149968 -1.110221
v -0.555110 2.149968 -1.110221
v -1.665331 1.000000 -1.110221
v -1.665331 1.000000 -1.110221
v -1.665331 1.000000 -1.110221
v -1.110221 2.149968 -1.110221
v -1.110221 2.149968 -1.110221
v -1.110221 2.149968 -1.110221
v -1.110221 1.000000 -1.665331
v -1.110221 1.000000 -1.665331
v -1.110221 1.000000 -1.665331
v -1.110221 2.149968 -0.555110
v -1.110221 2.149968 -0.555110
v -1.110221 2.149968 -0.555110
v 1.665331 1.000000 -1.110221
v 1.665331 1.000000 -1.110221
v 1.665331 1.000000 -1.110221
v 0.555110 2.149968 -1.110221
v 0.555110 2.149968 -1.110221
v 0.555110 2.149968 -1.110221
v 1.110221 2.149968 -1.110221
v 1.110221 2.149968 -1.110221
v 1.110221 2.149968 -1.110221
v 1.110221 1.000000 -1.665331
v 1.110221 1.000000 -1.665331
v 1.110221 1.000000 -1.665331
v 1.110221 2.149968 -0.555110
v 1.110221 2.149968 -0.555110
v 1.110221 2.149968 -0.555110
v 1.665331 1.000000 1.110221
v 1.665331 1.000000 1.110221
v 1.665331 1.000000 1.110221
v 0.555110 2.149968 1.110221
v 0.555110 2.149968 1.110221
v 0.555110 2.149968 1.110221
v 0.555110 2.149968 1.110221
v 1.110221 2.149968 1.110221
v 1.110221 2.149968 1.110221
v 1.110221 2.149968 1.110221
v 1.110221 2.149968 0.555110
v 1.110221 2.149968 0.555110
v 1.110221 2.149968 0.555110
v 1.110221 1.000000 1.665331
v 1.110221 1.000000 1.665331
v 1.110221 1.000000 1.665331
v 0.555110 1.000000 1.665331
v 0.555110 1.000000 1.665331
v 0.555110 1.000000 1.665331
v 0.555110 1.000000 1.665331
v 0.555110 2.149968 0.555110
v 0.555110 2.149968 0.555110
v 0.555110 2.149968 0.555110
v 1.665331 1.000000 0.555110
v 1.665331 1.000000 0.555110
v 1.665331 1.000000 0.555110
v 0.555110 2.149968 -0.555110
v 0.555110 2.149968 -0.555110
v 0.555110 2.149968 -0.555110
v 0.555110 1.000000 -1.665331
v 0.555110 1.000000 -1.665331
v 0.555110 1.000000 -1.665331
v 1.665331 1.000000 -1.665331
v 1.665331 1.000000 -1.665331
v 1.665331 1.000000 -1.665331
v -1.665331 1.000000 -0.555110
v -1.665331 1.000000 -0.555110
v -1.665331 1.000000 -0.555110
v -1.665331 1.000000 -1.665331
v -1.665331 1.000000 -1.665331
v -1.665331 1.000000 -1.665331
v -0.555110 1.000000 -1.665331
v -0.555110 1.000000 -1.665331
v -0.555110 1.000000 -1.665331
v -1.665331 1.000000 1.665331
v -1.665331 1.000000 1.665331
v -1.665331 1.000000 1.665331
v -1.665331 1.000000 0.555110
v -1.665331 1.000000 0.555110
v -1.665331 1.000000 0.555110
v -0.555110 2.149968 0.555110
v -0.555110 2.149968 0.555110
v -0.555110 2.149968 0.555110
v -0.555110 1.000000 1.665331
v -0.555110 1.000000 1.665331
v -0.555110 1.000000 1.665331
v -0.555110 2.149968 -0.555110
v -0.555110 2.149968 -0.555110
v -0.555110 2.149968 -0.555110
v 1.665331 1.000000 -0.555110
v 1.665331 1.000000 -0.555110
v 1.665331 1.000000 -0.555110
v 1.665331 1.000000 1.665331
v 1.665331 1.000000 1.665331
v 1.665331 1.000000 1.665331
v 0.000000 1.434719 2.565897
v 0.000000 1.434719 2.565897
v 0.000000 2.584687 2.010787
v 0.000000 2.584687 2.010787
v 0.555110 2.584687 2.010787
v 0.555110 2.584687 2.010787
v 0.555110 1.434719 2.565897
v 0.555110 1.434719 2.565897
vt 1.0000 0.0000
vt 0.0000 1.0000
vt 0.0000 0.0000
vt 1.0000 0.0000
vt 0.0000 1.0000
vt 0.0000 0.0000
vt 1.0000 0.0000
vt 0.0000 1.0000
vt 0.0000 0.0000
vt 1.0000 0.0000
vt 0.0000 1.0000
vt 0.0000 0.0000
vt 1.0000 0.0000
vt 0.0000 1.0000
vt 0.0000 0.0000
vt 1.0000 0.8750
vt 0.8750 1.0000
vt 0.8750 0.8750
vt 0.5000 0.8750
vt 0.3750 1.0000
vt 0.3750 0.8750
vt 0.5000 0.3750
vt 0.3750 0.5000
vt 0.3750 0.3750
vt 1.0000 0.3750
vt 0.8750 0.5000
vt 0.8750 0.3750
vt 0.7500 0.3750
vt 0.6250 0.5000
vt 0.6250 0.3750
vt 0.7500 0.1250
vt 0.6250 0.2500
vt 0.6250 0.1250
vt 1.0000 0.1250
vt 0.8750 0.2500
vt 0.8750 0.1250
vt 0.2500 0.3750
vt 0.1250 0.5000
vt 0.1250 0.3750
vt 0.2500 0.1250
vt 0.1250 0.2500
vt 0.1250 0.1250
vt 0.5000 0.1250
vt 0.3750 0.2500
vt 0.3750 0.1250
vt 0.2500 0.8750
vt 0.1250 1.0000
vt 0.1250 0.8750
vt 0.2500 0.6250
vt 0.1250 0.7500
vt 0.1250 0.6250
vt 0.5000 0.6250
vt 0.3750 0.7500
vt 0.3750 0.6250
vt 0.7500 0.8750
vt 0.6250 1.0000
vt 0.6250 0.8750
vt 0.7500 0.6250
vt 0.6250 0.7500
vt 0.6250 0.6250
vt 1.0000 0.6250
vt 0.8750 0.7500
vt 0.8750 0.6250
vt 0.8750 0.6250
vt 0.7500 0.7500
vt 0.7500 0.6250
vt 0.8750 0.5000
vt 0.7500 0.5000
vt 0.7500 0.5000
vt 1.0000 0.5000
vt 0.8750 0.6250
vt 0.8750 0.5000
vt 0.6250 0.6250
vt 0.5000 0.7500
vt 0.5000 0.6250
vt 0.6250 0.5000
vt 0.5000 0.6250
vt 0.5000 0.5000
vt 0.7500 0.5000
vt 0.6250 0.6250
vt 0.6250 0.5000
vt 0.6250 0.8750
vt 0.5000 1.0000
vt 0.5000 0.8750
vt 0.6250 0.7500
vt 0.5000 0.8750
vt 0.5000 0.7500
vt 0.7500 0.7500
vt 0.6250 0.8750
vt 0.6250 0.7500
vt 0.3750 0.6250
vt 0.2500 0.7500
vt 0.2500 0.6250
vt 0.3750 0.5000
vt 0.2500 0.6250
vt 0.2500 0.5000
vt 0.5000 0.5000
vt 0.3750 0.6250
vt 0.3750 0.5000
vt 0.1250 0.6250
vt 0.0000 0.7500
vt 0.0000 0.6250
vt 0.1250 0.5000
vt 0.0000 0.6250
vt 0.0000 0.5000
vt 0.2500 0.5000
vt 0.1250 0.6250
vt 0.1250 0.5000
vt 0.1250 0.8750
vt 0.0000 1.0000
vt 0.0000 0.8750
vt 0.1250 0.7500
vt 0.0000 0.8750
vt 0.0000 0.7500
vt 0.1250 0.7500
vt 0.2500 0.8750
vt 0.1250 0.8750
vt 0.3750 0.1250
vt 0.2500 0.2500
vt 0.2500 0.1250
vt 0.3750 0.0000
vt 0.2500 0.1250
vt 0.2500 0.0000
vt 0.5000 0.0000
vt 0.3750 0.1250
vt 0.3750 0.0000
vt 0.1250 0.1250
vt 0.0000 0.2500
vt 0.0000 0.1250
vt 0.1250 0.0000
vt 0.0000 0.1250
vt 0.0000 0.0000
vt 0.2500 0.0000
vt 0.1250 0.1250
vt 0.1250 0.0000
vt 0.1250 0.3750
vt 0.0000 0.5000
vt 0.0000 0.3750
vt 0.1250 0.2500
vt 0.0000 0.3750
vt 0.0000 0.2500
vt 0.2500 0.2500
vt 0.1250 0.3750
vt 0.1250 0.2500
vt 0.7500 0.1250
vt 0.8750 0.2500
vt 0.7500 0.2500
vt 0.8750 0.0000
vt 0.7500 0.1250
vt 0.7500 0.0000
vt 1.0000 0.0000
vt 0.8750 0.1250
vt 0.8750 0.0000
vt 0.6250 0.1250
vt 0.5000 0.2500
vt 0.5000 0.1250
vt 0.6250 0.0000
vt 0.5000 0.1250
vt 0.5000 0.0000
vt 0.7500 0.0000
vt 0.6250 0.1250
vt 0.6250 0.0000
vt 0.6250 0.3750
vt 0.5000 0.5000
vt 0.5000 0.3750
vt 0.6250 0.2500
vt 0.5000 0.3750
vt 0.5000 0.2500
vt 0.7500 0.2500
vt 0.6250 0.3750
vt 0.6250 0.2500
vt 0.8750 0.3750
vt 0.7500 0.5000
vt 0.7500 0.3750
vt 0.8750 0.2500
vt 0.7500 0.3750
vt 0.7500 0.2500
vt 1.0000 0.2500
vt 0.8750 0.3750
vt 0.8750 0.2500
vt 0.3750 0.3750
vt 0.2500 0.5000
vt 0.2500 0.3750
vt 0.3750 0.2500
vt 0.2500 0.3750
vt 0.2500 0.2500
vt 0.5000 0.2500
vt 0.3750 0.3750
vt 0.3750 0.2500
vt 0.3750 0.8750
vt 0.2500 1.0000
vt 0.2500 0.8750
vt 0.3750 0.7500
vt 0.2500 0.8750
vt 0.2500 0.7500
vt 0.5000 0.7500
vt 0.3750 0.8750
vt 0.3750 0.7500
vt 0.8750 0.8750
vt 0.7500 1.0000
vt 0.7500 0.8750
vt 0.8750 0.7500
vt 0.7500 0.8750
vt 0.7500 0.7500
vt 1.0000 0.7500
vt 0.8750 0.8750
vt 0.8750 0.7500
vt 0.8750 0.5000
vt 0.7500 0.6250
vt 0.7500 0.5000
vt 0.8750 0.6250
vt 0.8750 0.5000
vt 0.8750 0.5000
vt 0.7500 0.5000
vt 0.7500 0.6250
vt 0.7500 0.6250
vt 0.7500 0.6250
vt 0.8750 0.6250
vt 0.8750 0.6250
vt 1.0000 1.0000
vt 1.0000 1.0000
vt 1.0000 1.0000
vt 1.0000 1.0000
vt 1.0000 1.0000
vt 1.0000 1.0000
vt 0.5000 1.0000
vt 0.5000 0.5000
vt 1.0000 0.5000
vt 0.7500 0.5000
vt 0.7500 0.2500
vt 1.0000 0.2500
vt 0.2500 0.5000
vt 0.2500 0.2500
vt 0.5000 0.2500
vt 0.2500 1.0000
vt 0.2500 0.7500
vt 0.5000 0.7500
vt 0.7500 1.0000
vt 0.7500 0.7500
vt 1.0000 0.7500
vt 0.8750 0.7500
vt 0.8750 0.5000
vt 1.0000 0.6250
vt 0.6250 0.7500
vt 0.6250 0.6250
vt 0.7500 0.6250
vt 0.6250 1.0000
vt 0.6250 0.8750
vt 0.7500 0.8750
vt 0.3750 0.7500
vt 0.3750 0.6250
vt 0.5000 0.6250
vt 0.1250 0.7500
vt 0.1250 0.6250
vt 0.2500 0.6250
vt 0.1250 1.0000
vt 0.1250 0.8750
vt 0.2500 0.7500
vt 0.3750 0.2500
vt 0.3750 0.1250
vt 0.5000 0.1250
vt 0.1250 0.2500
vt 0.1250 0.1250
vt 0.2500 0.1250
vt 0.1250 0.5000
vt 0.1250 0.3750
vt 0.2500 0.3750
vt 0.8750 0.1250
vt 0.8750 0.1250
vt 1.0000 0.1250
vt 0.6250 0.2500
vt 0.6250 0.1250
vt 0.7500 0.1250
vt 0.6250 0.5000
vt 0.6250 0.3750
vt 0.7500 0.3750
vt 0.8750 0.5000
vt 0.8750 0.3750
vt 1.0000 0.3750
vt 0.3750 0.5000
vt 0.3750 0.3750
vt 0.5000 0.3750
vt 0.3750 1.0000
vt 0.3750 0.8750
vt 0.5000 0.8750
vt 0.8750 1.0000
vt 0.8750 0.8750
vt 1.0000 0.8750
vt 0.8750 0.6250
vt 0.8750 0.6250
vt 0.7500 0.5000
vt 0.7500 0.6250
vn 0.8536 -0.5209 0.0000
vn 0.0000 -0.5209 0.8536
vn -0.8536 -0.5209 0.0000
vn 0.0000 -0.5209 -0.8536
vn 0.0000 -1.0000 0.0000
vn 0.0000 1.0000 0.0000
vn -0.9005 0.4347 0.0000
vn 0.0000 0.4347 -0.9005
vn -0.4998 0.7074 -0.4998
vn 0.0000 0.4347 0.9005
vn -1.0000 0.0000 0.0000
vn 0.9005 0.4347 0.0000
vn 0.4998 0.7074 -0.4998
vn -0.4998 0.7074 0.4998
vn -0.6692 0.3230 0.6692
vn 0.4998 0.7074 0.4998
vn 0.6692 0.3230 0.6692
vn 0.0000 -0.9005 0.4347
vn 0.0000 0.9005 -0.4347
vn 1.0000 0.0000 0.0000
vn -0.6692 0.3230 -0.6692
vn 0.6692 0.3230 -0.6692
usemtl None
s 1
f 16/1/1 13/2/1 15/3/1
f 19/4/2 18/5/2 10/6/2
f 22/7/3 21/8/3 11/9/3
f 9/10/4 24/11/4 12/12/4
f 3/13/5 5/14/5 1/15/5
f 64/16/6 106/17/6 282/18/6
f 118/19/6 110/20/6 279/21/6
f 121/22/6 162/23/6 276/24/6
f 60/25/6 168/26/6 273/27/6
f 175/28/6 131/29/6 270/30/6
f 178/31/7 185/32/7 267/33/7
f 48/34/6 188/35/6 264/36/6
f 190/37/8 128/38/8 261/39/8
f 193/40/9 200/41/9 258/42/6
f 155/43/7 203/44/7 255/45/7
f 205/46/6 141/47/6 252/48/6
f 208/49/8 215/50/8 249/51/8
f 149/52/6 218/53/6 246/54/6
f 220/55/6 133/56/6 243/57/6
f 223/58/6 231/59/6 240/60/6
f 52/61/6 234/62/6 236/63/6
f 238/64/10 228/65/10 225/66/10
f 167/67/11 287/68/11 171/69/11
f 115/70/6 237/71/6 169/72/6
f 242/73/6 153/74/6 151/75/6
f 130/76/6 150/77/6 125/78/6
f 173/79/6 87/80/6 57/81/6
f 245/82/6 25/83/6 120/84/6
f 232/85/12 119/86/12 154/87/12
f 229/88/12 88/89/12 84/90/12
f 248/91/6 212/92/6 210/93/6
f 161/94/6 209/95/6 164/96/6
f 29/97/6 89/98/6 163/99/6
f 251/100/6 136/101/6 135/102/6
f 127/103/6 59/104/6 26/105/6
f 166/106/8 90/107/8 56/108/8
f 254/109/6 2/110/6 107/111/6
f 216/112/6 47/113/6 31/114/6
f 80/115/13 206/116/13 91/117/6
f 257/118/7 197/119/7 195/120/7
f 139/121/6 194/122/6 140/123/6
f 28/124/6 92/125/6 61/126/6
f 260/127/6 144/128/6 143/129/6
f 109/130/6 63/131/6 6/132/6
f 33/133/6 93/134/6 49/135/6
f 263/136/6 113/137/6 112/138/6
f 201/139/6 51/140/6 35/141/6
f 198/142/8 94/143/8 76/144/8
f 180/145/14 187/146/14 182/147/15
f 147/148/6 179/149/6 148/150/6
f 8/151/6 95/152/6 65/153/6
f 269/154/7 159/155/7 157/156/7
f 116/157/6 67/158/6 117/159/6
f 37/160/6 96/161/6 53/162/6
f 272/163/6 126/164/6 123/165/6
f 186/166/6 122/167/6 160/168/6
f 183/169/6 97/170/6 72/171/6
f 275/172/10 174/173/10 177/174/10
f 189/175/10 70/176/10 42/177/10
f 138/178/6 98/179/6 73/180/6
f 278/181/6 40/182/6 192/183/6
f 204/184/6 74/185/6 43/186/6
f 39/187/6 99/188/6 77/189/6
f 281/190/6 34/191/6 207/192/6
f 219/193/12 78/194/12 44/195/12
f 38/196/12 100/197/12 81/198/12
f 284/199/6 30/200/6 222/201/6
f 235/202/16 82/203/16 45/204/17
f 146/205/6 101/206/6 85/207/6
f 286/208/10 289/209/10 288/210/10
f 239/211/18 102/212/18 69/213/18
f 41/214/19 290/215/19 226/216/19
f 83/217/20 105/218/20 86/219/20
f 16/1/1 17/220/1 13/2/1
f 19/4/2 20/221/2 18/5/2
f 22/7/3 23/222/3 21/8/3
f 9/10/4 14/223/4 24/11/4
f 3/13/5 7/224/5 5/14/5
f 64/16/6 4/225/6 106/17/6
f 118/19/6 111/226/6 110/20/6
f 121/22/6 124/227/6 162/23/6
f 60/25/6 27/228/6 168/26/6
f 175/28/6 172/229/6 131/29/6
f 178/31/7 181/230/7 185/32/7
f 48/34/6 32/231/6 188/35/6
f 190/37/8 165/232/8 128/38/8
f 193/40/9 196/233/21 200/41/9
f 155/43/7 158/234/7 203/44/7
f 205/46/6 142/235/6 141/47/6
f 208/49/8 211/236/8 215/50/8
f 149/52/6 152/237/6 218/53/6
f 220/55/6 134/238/6 133/56/6
f 223/58/6 227/239/6 231/59/6
f 52/61/6 36/240/6 234/62/6
f 238/64/10 233/241/10 228/65/10
f 167/67/11 285/242/11 287/68/11
f 115/70/6 114/243/6 237/71/6
f 242/73/6 230/244/6 153/74/6
f 130/76/6 241/245/6 150/77/6
f 173/79/6 224/246/6 87/80/6
f 245/82/6 58/247/6 25/83/6
f 232/85/12 244/248/12 119/86/12
f 229/88/12 221/249/12 88/89/12
f 248/91/6 217/250/6 212/92/6
f 161/94/6 247/251/6 209/95/6
f 29/97/6 66/252/6 89/98/6
f 251/100/6 214/253/6 136/101/6
f 127/103/6 250/254/6 59/104/6
f 166/106/8 79/255/8 90/107/8
f 254/109/6 62/256/6 2/110/6
f 216/112/6 253/257/6 47/113/6
f 80/115/13 213/258/22 206/116/13
f 257/118/7 202/259/7 197/119/7
f 139/121/6 256/260/6 194/122/6
f 28/124/6 156/261/6 92/125/6
f 260/127/6 199/262/6 144/128/6
f 109/130/6 259/263/6 63/131/6
f 33/133/6 75/264/6 93/134/6
f 263/136/6 129/265/6 113/137/6
f 201/139/6 262/266/6 51/140/6
f 198/142/8 191/267/8 94/143/8
f 180/145/14 266/268/6 187/146/14
f 147/148/6 265/269/6 179/149/6
f 8/151/6 108/270/6 95/152/6
f 269/154/7 184/271/7 159/155/7
f 116/157/6 268/272/6 67/158/6
f 37/160/6 71/273/6 96/161/6
f 272/163/6 132/274/6 126/164/6
f 186/166/6 271/275/6 122/167/6
f 183/169/6 176/276/6 97/170/6
f 275/172/10 170/277/10 174/173/10
f 189/175/10 274/278/10 70/176/10
f 138/178/6 137/279/6 98/179/6
f 278/181/6 68/280/6 40/182/6
f 204/184/6 277/281/6 74/185/6
f 39/187/6 55/282/6 99/188/6
f 281/190/6 50/283/6 34/191/6
f 219/193/12 280/284/12 78/194/12
f 38/196/12 54/285/12 100/197/12
f 284/199/6 46/286/6 30/200/6
f 235/202/16 283/287/6 82/203/16
f 146/205/6 145/288/6 101/206/6
f 286/208/10 291/289/10 289/209/10
f 239/211/18 292/290/18 102/212/18
f 41/214/19 103/291/19 290/215/19
f 83/217/20 104/292/20 105/218/20
