# Blender v2.77 (sub 0) OBJ File: 'DragonBlender.blend'
# www.blender.org
v 1.000000 -1.000000 -1.000000
v 1.000000 1.000000 -1.000000
v 1.000000 -1.000000 1.000000
v 1.000000 1.000000 1.000000
v -1.000000 -1.000000 -1.000000
v -1.000000 1.000000 -1.000000
v -1.000000 -1.000000 1.000000
v -1.000000 1.000000 1.000000
vn 0.5773 0.5773 0.5773
vn 0.5773 -0.5773 -0.5773
vn 0.5773 0.5773 -0.5773
vn -0.5773 0.5773 0.5773
vn 0.5773 -0.5773 0.5773
vn -0.5773 0.5773 -0.5773
vn -0.5773 -0.5773 0.5773
vn -0.5773 -0.5773 -0.5773
s 1
f 4//1 1//2 2//3
f 8//4 3//5 4//1
f 6//6 7//7 8//4
f 2//3 5//8 6//6
f 3//5 5//8 1//2
f 8//4 2//3 6//6
f 4//1 3//5 1//2
f 8//4 7//7 3//5
f 6//6 5//8 7//7
f 2//3 1//2 5//8
f 3//5 7//7 5//8
f 8//4 4//1 2//3
